<mxfile host="app.diagrams.net" modified="2021-02-05T03:54:11.059Z" agent="5.0 (Macintosh; Intel Mac OS X 10_15_7) AppleWebKit/605.1.15 (KHTML, like Gecko) Version/14.0 Safari/605.1.15" etag="5RYYe33Jw9ttscPadcqE" version="14.2.9" type="github">
  <diagram id="fCY9BckHUu5SdC22-O3J" name="Page-1">
    <mxGraphModel dx="830" dy="819" grid="1" gridSize="10" guides="1" tooltips="1" connect="1" arrows="1" fold="1" page="1" pageScale="1" pageWidth="827" pageHeight="1169" math="0" shadow="0">
      <root>
        <mxCell id="0" />
        <mxCell id="1" parent="0" />
        <mxCell id="1a-gpr6VeMfHqMLkpVjK-2" value="Hive" style="strokeWidth=2;html=1;shape=mxgraph.flowchart.database;whiteSpace=wrap;" parent="1" vertex="1">
          <mxGeometry x="244" y="440" width="90" height="140" as="geometry" />
        </mxCell>
        <mxCell id="5Uwb7l14p1u4DFGXMx0G-10" value="" style="edgeStyle=orthogonalEdgeStyle;rounded=0;orthogonalLoop=1;jettySize=auto;html=1;" edge="1" parent="1" source="1a-gpr6VeMfHqMLkpVjK-3" target="5Uwb7l14p1u4DFGXMx0G-1">
          <mxGeometry relative="1" as="geometry" />
        </mxCell>
        <mxCell id="1a-gpr6VeMfHqMLkpVjK-3" value="数据平台" style="strokeWidth=2;html=1;shape=mxgraph.flowchart.direct_data;whiteSpace=wrap;" parent="1" vertex="1">
          <mxGeometry x="439" y="260" width="150" height="60" as="geometry" />
        </mxCell>
        <mxCell id="1a-gpr6VeMfHqMLkpVjK-11" value="" style="edgeStyle=orthogonalEdgeStyle;rounded=0;orthogonalLoop=1;jettySize=auto;html=1;" parent="1" source="1a-gpr6VeMfHqMLkpVjK-10" target="1a-gpr6VeMfHqMLkpVjK-2" edge="1">
          <mxGeometry relative="1" as="geometry" />
        </mxCell>
        <mxCell id="1a-gpr6VeMfHqMLkpVjK-10" value="&lt;div&gt;SST&lt;/div&gt;&lt;div&gt;选取高质量数据并标注&amp;nbsp;&lt;/div&gt;" style="rounded=1;whiteSpace=wrap;html=1;absoluteArcSize=1;arcSize=14;strokeWidth=2;align=center;" parent="1" vertex="1">
          <mxGeometry x="70" y="420" width="100" height="100" as="geometry" />
        </mxCell>
        <mxCell id="1a-gpr6VeMfHqMLkpVjK-13" value="" style="edgeStyle=orthogonalEdgeStyle;rounded=0;orthogonalLoop=1;jettySize=auto;html=1;" parent="1" source="1a-gpr6VeMfHqMLkpVjK-12" target="1a-gpr6VeMfHqMLkpVjK-2" edge="1">
          <mxGeometry relative="1" as="geometry" />
        </mxCell>
        <mxCell id="1a-gpr6VeMfHqMLkpVjK-12" value="从hive中抽取数据训练模型" style="rounded=1;whiteSpace=wrap;html=1;absoluteArcSize=1;arcSize=14;strokeWidth=2;" parent="1" vertex="1">
          <mxGeometry x="470" y="460" width="100" height="100" as="geometry" />
        </mxCell>
        <mxCell id="5Uwb7l14p1u4DFGXMx0G-9" style="edgeStyle=orthogonalEdgeStyle;rounded=0;orthogonalLoop=1;jettySize=auto;html=1;exitX=0.5;exitY=1;exitDx=0;exitDy=0;entryX=0.5;entryY=0;entryDx=0;entryDy=0;entryPerimeter=0;" edge="1" parent="1" source="5Uwb7l14p1u4DFGXMx0G-1" target="1a-gpr6VeMfHqMLkpVjK-2">
          <mxGeometry relative="1" as="geometry" />
        </mxCell>
        <mxCell id="5Uwb7l14p1u4DFGXMx0G-1" value="每日任务&lt;br&gt;从数据源读取日志处理写入hive" style="rounded=1;whiteSpace=wrap;html=1;absoluteArcSize=1;arcSize=14;strokeWidth=2;" vertex="1" parent="1">
          <mxGeometry x="239" y="240" width="100" height="100" as="geometry" />
        </mxCell>
        <mxCell id="5Uwb7l14p1u4DFGXMx0G-12" style="edgeStyle=orthogonalEdgeStyle;rounded=0;orthogonalLoop=1;jettySize=auto;html=1;entryX=1;entryY=0.5;entryDx=0;entryDy=0;" edge="1" parent="1" source="5Uwb7l14p1u4DFGXMx0G-3" target="5Uwb7l14p1u4DFGXMx0G-1">
          <mxGeometry relative="1" as="geometry" />
        </mxCell>
        <mxCell id="5Uwb7l14p1u4DFGXMx0G-3" value="KAFKA订阅流" style="strokeWidth=2;html=1;shape=mxgraph.flowchart.direct_data;whiteSpace=wrap;" vertex="1" parent="1">
          <mxGeometry x="439" y="340" width="150" height="60" as="geometry" />
        </mxCell>
        <mxCell id="5Uwb7l14p1u4DFGXMx0G-11" style="edgeStyle=orthogonalEdgeStyle;rounded=0;orthogonalLoop=1;jettySize=auto;html=1;entryX=1;entryY=0.5;entryDx=0;entryDy=0;" edge="1" parent="1" source="5Uwb7l14p1u4DFGXMx0G-4" target="5Uwb7l14p1u4DFGXMx0G-1">
          <mxGeometry relative="1" as="geometry" />
        </mxCell>
        <mxCell id="5Uwb7l14p1u4DFGXMx0G-4" value="日志机" style="strokeWidth=2;html=1;shape=mxgraph.flowchart.direct_data;whiteSpace=wrap;" vertex="1" parent="1">
          <mxGeometry x="439" y="180" width="150" height="60" as="geometry" />
        </mxCell>
        <mxCell id="5Uwb7l14p1u4DFGXMx0G-7" style="edgeStyle=orthogonalEdgeStyle;rounded=0;orthogonalLoop=1;jettySize=auto;html=1;exitX=1;exitY=0.5;exitDx=0;exitDy=0;entryX=0;entryY=0.5;entryDx=0;entryDy=0;entryPerimeter=0;" edge="1" parent="1" source="5Uwb7l14p1u4DFGXMx0G-5" target="1a-gpr6VeMfHqMLkpVjK-2">
          <mxGeometry relative="1" as="geometry" />
        </mxCell>
        <mxCell id="5Uwb7l14p1u4DFGXMx0G-5" value="Latice deepth&lt;br&gt;自动回流语言模型" style="rounded=1;whiteSpace=wrap;html=1;absoluteArcSize=1;arcSize=14;strokeWidth=2;" vertex="1" parent="1">
          <mxGeometry x="70" y="500" width="100" height="100" as="geometry" />
        </mxCell>
      </root>
    </mxGraphModel>
  </diagram>
</mxfile>
